<?xml version="1.0" encoding="utf-8"?>
<!-- Generator: Adobe Illustrator 23.0.3, SVG Export Plug-In . SVG Version: 6.00 Build 0)  -->
<svg version="1.1"  xmlns="http://www.w3.org/2000/svg" xmlns:xlink="http://www.w3.org/1999/xlink" x="0px" y="0px"
	 viewBox="0 0 842.49 287.16" style="enable-background:new 0 0 842.49 287.16;" xml:space="preserve">
<style type="text/css">
	.st0{fill:#FFFFFF;}
	.st1{font-family:'NexaLight';}
	.st2{font-size:50px;}
</style>
<path class="st0" d="M131.6,60.43c0,30.81-27.16,57.19-59.53,57.19H30.81v65.54c0,8.62-6.79,15.41-15.41,15.41S0,191.77,0,183.15
	V17.34C0,9.25,6.53,2.46,14.62,1.93V0.37h59.54C105.23,0.37,131.6,27.78,131.6,60.43z M100.53,60.43
	c0-15.15-12.53-28.99-26.37-28.99H30.81v55.1h41.26C87.21,86.54,100.53,74.26,100.53,60.43z"/>
<path class="st0" d="M242.81,198.19c-54.84,0-99.23-44.39-99.23-99.23C143.59,44.39,187.98,0,242.81,0
	c54.57,0,98.97,44.39,98.97,99.23C341.78,153.8,297.39,198.19,242.81,198.19z M242.81,31.6c-37.34,0-67.63,30.29-67.63,67.37
	c0,37.34,30.29,67.63,67.63,67.63c37.08,0,67.37-30.29,67.37-67.63C310.18,61.89,279.89,31.6,242.81,31.6z"/>
<path class="st0" d="M524.4,182.37c0,0.26-0.26,0.26-0.26,0.26v1.04c0,0,0,0.26,0,0.52v0.78c-0.26,0.26-0.26,0.52-0.26,0.78
	c0,0.26,0,0.52-0.26,0.78v0.78c-0.26,0.26-0.26,0.52-0.26,0.52l-0.52,0.78c0,0.26,0,0.52-0.26,0.78c0,0.26-0.26,0.52-0.26,0.78
	l-0.52,0.78c0,0-0.26,0.26-0.26,0.52c-0.26,0.26-0.52,0.26-0.52,0.52c-0.26,0.26-0.26,0.52-0.52,0.52c0,0.26-0.26,0.52-0.52,0.78
	c-0.26,0-0.26,0.26-0.52,0.52c-0.26,0-0.26,0.26-0.52,0.52c-0.26,0-0.52,0.26-0.52,0.52h-0.26c0,0.26-0.26,0.26-0.26,0.26
	c-0.52,0.52-1.31,0.78-2.09,1.31c-0.78,0.26-1.3,0.78-2.09,1.04h-0.26c-0.78,0.26-1.57,0.52-2.35,0.52h-0.52
	c-0.52,0.26-1.3,0.26-2.09,0.26c-0.52,0-1.3,0-1.83,0l-0.26-0.26c-0.52,0-1.04,0-1.3,0c-0.26-0.26-0.26-0.26-0.52-0.26
	c-0.52,0-0.78-0.26-1.3-0.26c0,0-0.26-0.26-0.52-0.26s-0.52-0.26-0.78-0.52c-0.26,0-0.52,0-0.78-0.26c-0.26,0-0.52-0.26-0.78-0.52
	c-0.26,0-0.52,0-0.52-0.26c-0.52-0.26-0.78-0.26-1.04-0.52c0-0.26-0.26-0.26-0.52-0.52c-0.26-0.26-0.78-0.52-1.04-1.04
	c-0.26,0-0.26-0.26-0.26-0.26c-0.52-0.26-0.78-0.78-1.05-1.04v-0.26L396.19,62.51v119.85c0,8.88-7.31,15.93-15.93,15.93
	c-8.88,0-15.93-7.05-15.93-15.93V16.03v-0.26c0-0.26,0-0.52,0-1.04c0.26,0,0.26-0.26,0.26-0.52v-0.78c0-0.26,0-0.52,0.26-0.78v-0.78
	c0.26-0.26,0.26-0.52,0.26-0.78s0.26-0.52,0.26-0.52c0-0.26,0.26-0.52,0.26-0.78l0.52-0.78c0-0.26,0-0.52,0.26-0.78
	c0-0.26,0.26-0.52,0.52-0.78c0,0,0-0.26,0.26-0.52l0.52-0.52c0-0.26,0.26-0.52,0.26-0.52l0.78-0.78c0,0,0.26-0.26,0.52-0.52
	l0.52-0.52c0,0,0.26-0.26,0.52-0.52h0.26c0-0.26,0.26-0.26,0.26-0.26c0.26-0.26,0.52-0.52,0.78-0.52c0.26-0.26,0.52-0.26,0.52-0.52
	c0.26,0,0.52-0.26,0.78-0.26c0.26-0.26,0.52-0.26,0.78-0.26l0.78-0.52c0.26,0,0.26,0,0.52-0.26c0.26,0,0.52,0,0.78-0.26h0.78
	c0.26-0.26,0.52-0.26,0.78-0.26h0.78c0.26-0.26,0.52-0.26,0.78-0.26h0.78c0.26,0,0.26,0,0.52,0h0.26c0.26,0,0.52,0,0.78,0h0.78
	c0.26,0.26,0.52,0.26,0.78,0.26h0.78c0.26,0.26,0.52,0.26,0.52,0.26l1.04,0.26c0,0,0.26,0.26,0.52,0.26c0.26,0,0.52,0.26,0.78,0.26
	s0.52,0.26,0.78,0.26l0.52,0.52c0.26,0,0.52,0.26,0.78,0.26c0.26,0.26,0.52,0.26,0.52,0.52c0.26,0,0.52,0.26,0.78,0.52
	c0.26,0,0.26,0.26,0.52,0.26l0.52,0.52c0.26,0.26,0.52,0.52,0.52,0.52l0.52,0.52c0.26,0.26,0.52,0.52,0.52,0.78
	c0.26,0,0.26,0,0.26,0.26l99.75,129.52V16.03c0-8.88,7.05-15.93,15.93-15.93c8.62,0,15.93,7.05,15.93,15.93V182.37z"/>
<path class="st0" d="M649.75,16.03c0,8.88-7.05,15.93-15.67,15.93H585v150.67c0,8.88-7.05,15.93-15.67,15.93
	c-8.88,0-15.93-7.05-15.93-15.93V31.96h-44.65c-8.62,0-15.67-7.05-15.67-15.93c0-8.62,7.05-15.67,15.67-15.67h125.33
	C642.7,0.37,649.75,7.42,649.75,16.03z"/>
<g>
	<g>
		<path class="st0" d="M705.88,9.78c23.25-5.49,49.74-6.57,73,0c3.1,0.88,4.43-3.95,1.33-4.82c-24.14-6.82-51.52-5.7-75.66,0
			C701.42,5.69,702.75,10.52,705.88,9.78L705.88,9.78z"/>
		<path class="st0" d="M754.51,15.23c-29.83-1.3-59.66,3.72-87.4,14.77c-2.95,1.18-1.67,6.01,1.33,4.82
			c27.36-10.9,56.64-15.87,86.07-14.59C757.73,20.37,757.72,15.37,754.51,15.23L754.51,15.23z"/>
		<path class="st0" d="M816.51,29.16c-16.5-6.49-33.64-10.75-51.23-12.92c-3.19-0.39-3.16,4.61,0,5
			c17.12,2.11,33.85,6.44,49.9,12.75C818.18,35.15,819.48,30.32,816.51,29.16L816.51,29.16z"/>
		<path class="st0" d="M654.21,52.89c3.22,0,3.22-5,0-5C651,47.89,650.99,52.89,654.21,52.89L654.21,52.89z"/>
		<path class="st0" d="M702.3,32.3c-16.85,3.25-33.39,9.54-48.89,16.86c-2.91,1.37-0.37,5.68,2.52,4.32
			c15.11-7.13,31.27-13.19,47.69-16.35C706.79,36.52,705.45,31.7,702.3,32.3L702.3,32.3z"/>
		<path class="st0" d="M831.82,49.16c-26.24-12.48-54.67-19.92-83.73-21.22c-12.11-0.54-24.82-0.43-36.75,2.06
			c-3.15,0.66-1.82,5.48,1.33,4.82c11.1-2.32,22.93-2.37,34.2-1.94c28.56,1.11,56.64,8.33,82.43,20.59
			C832.18,54.85,834.72,50.54,831.82,49.16L831.82,49.16z"/>
		<path class="st0" d="M816.03,57.75c-23.95-9.76-49.96-16.59-75.99-16.06c-17,0.35-33.66,3.62-49.84,8.6
			c-14.67,4.51-29.21,9.46-43.7,14.52c-3.02,1.05-1.72,5.88,1.33,4.82c19.18-6.69,38.55-14.04,58.38-18.62
			c24.04-5.55,48.52-5.46,72.55,0.06c12.28,2.82,24.28,6.76,35.95,11.51C817.68,63.78,818.97,58.95,816.03,57.75L816.03,57.75z"/>
		<path class="st0" d="M822.29,64.74c4.7,1.45,9.4,2.89,14.11,4.34c3.08,0.95,4.4-3.88,1.33-4.82c-4.7-1.45-9.4-2.89-14.11-4.34
			C820.54,58.97,819.22,63.8,822.29,64.74L822.29,64.74z"/>
		<path class="st0" d="M644.03,84.82c9.49-1.34,18.84-4.55,27.67-8.14c2.94-1.19,1.66-6.03-1.33-4.82
			c-8.84,3.59-18.18,6.8-27.67,8.14C639.53,80.44,640.88,85.26,644.03,84.82L644.03,84.82z"/>
		<path class="st0" d="M840.98,80c-23.79-8.58-47.95-18.27-72.87-23.09c-31.04-6.01-62.19-1.99-90.55,11.95
			c-2.89,1.42-0.36,5.73,2.52,4.32c28.32-13.92,59.64-17.36,90.45-10.68c23.58,5.12,46.49,14.16,69.13,22.32
			C842.69,85.91,843.99,81.08,840.98,80L840.98,80z"/>
		<path class="st0" d="M743.44,67.35c-16.76,0.72-33.12,3.78-48.87,9.55c-17.11,6.27-34.17,12.25-51.87,16.67
			c-3.12,0.78-1.8,5.6,1.33,4.82c17.3-4.31,34.04-10.07,50.75-16.25c15.72-5.82,31.9-9.07,48.67-9.78
			C746.65,72.21,746.66,67.21,743.44,67.35L743.44,67.35z"/>
		<path class="st0" d="M843.16,93.56c-30.02-7.27-57.74-21.82-88.64-25.29c-3.19-0.36-3.17,4.64,0,5
			c14.87,1.67,29.06,5.65,42.99,11.02c14.52,5.61,29.19,10.43,44.33,14.09C844.95,99.14,846.29,94.32,843.16,93.56L843.16,93.56z"/>
		<path class="st0" d="M792.26,90.85c-25.17-10.49-51.86-12.31-78.33-5.96c-10.63,2.55-20.56,6.56-30.84,10.18
			c-13.22,4.66-26.73,8.44-40.4,11.52c-3.14,0.71-1.81,5.53,1.33,4.82c13.09-2.95,26.03-6.54,38.7-10.93
			c10.11-3.5,19.87-7.59,30.27-10.21c26.43-6.66,52.71-5.1,77.93,5.41C793.9,96.9,795.19,92.07,792.26,90.85L792.26,90.85z"/>
		<path class="st0" d="M800.29,99.21c13.14,5.8,26.72,10.38,40.72,13.63c3.13,0.73,4.47-4.09,1.33-4.82
			c-13.56-3.15-26.79-7.5-39.53-13.12C799.9,93.61,797.35,97.92,800.29,99.21L800.29,99.21z"/>
		<path class="st0" d="M647.83,125.51c22.98-4.24,43.95-14.11,65.84-21.89c3.01-1.07,1.71-5.9-1.33-4.82
			c-21.89,7.78-42.87,17.65-65.84,21.89C643.34,121.27,644.67,126.09,647.83,125.51L647.83,125.51z"/>
		<path class="st0" d="M837.73,120.69c-20.56-5.72-40.45-13.18-60.71-19.82c-17.58-5.75-35.75-6.75-54.02-4.06
			c-3.17,0.47-1.82,5.29,1.33,4.82c18.19-2.68,35.98-1.16,53.35,4.72c19.53,6.61,38.83,13.62,58.72,19.15
			C839.5,126.37,840.83,121.55,837.73,120.69L837.73,120.69z"/>
		<path class="st0" d="M649.82,138.76c9.32-0.98,18.53-3.46,27.09-7.26c2.93-1.3,0.39-5.61-2.52-4.32
			c-7.69,3.41-16.19,5.7-24.57,6.58C646.65,134.09,646.62,139.09,649.82,138.76L649.82,138.76z"/>
		<path class="st0" d="M834.96,133.85c-21.36-6.83-42.38-14.64-63.7-21.58c-13.43-4.37-28.09-4.62-42.01-3.04
			c-16.5,1.88-32.39,6.88-47.02,14.72c-2.84,1.52-0.32,5.84,2.52,4.32c21.95-11.76,47.75-17.21,72.57-14.07
			c11.38,1.44,22.15,6.24,32.9,9.99c14.4,5.03,28.89,9.83,43.42,14.47C836.7,139.65,838.02,134.82,834.96,133.85L834.96,133.85z"/>
		<path class="st0" d="M796.36,135.94c-22.15-10.39-50.8-18.64-75.24-12.58c-6.87,1.71-13.5,4.64-20.11,7.1
			c-14.74,5.49-29.58,10.75-44.47,15.83c-3.03,1.03-1.73,5.86,1.33,4.82c14.52-4.95,28.98-10.07,43.37-15.42
			c6.6-2.45,13.17-5.29,19.97-7.18c23.25-6.47,51.49,1.82,72.64,11.74C796.73,141.62,799.27,137.31,796.36,135.94L796.36,135.94z"/>
		<path class="st0" d="M803.19,143.74c7.64,3.17,15.89,6.69,24.19,7.47c3.2,0.3,3.18-4.7,0-5c-7.77-0.73-15.7-4.32-22.86-7.29
			C801.55,137.69,800.26,142.52,803.19,143.74L803.19,143.74z"/>
		<path class="st0" d="M752.67,136.06c-14.39-1.17-28.62,0.37-42.19,5.33c-15.38,5.63-30.5,11.83-46.1,16.89
			c-3.05,0.99-1.74,5.82,1.33,4.82c15.27-4.95,30.1-10.93,45.13-16.53c13.52-5.04,27.44-6.69,41.84-5.52
			C755.87,141.32,755.86,136.32,752.67,136.06L752.67,136.06z"/>
		<path class="st0" d="M762.15,142.82c18.38,7.52,37.15,13.98,56.27,19.37c3.1,0.87,4.43-3.95,1.33-4.82
			c-19.11-5.39-37.89-11.85-56.27-19.37C760.5,136.78,759.2,141.61,762.15,142.82L762.15,142.82z"/>
		<path class="st0" d="M690.66,164.29c-5.37,1.14-10.62,2.96-15.68,5.07c-2.92,1.22-1.64,6.06,1.33,4.82
			c5.06-2.12,10.31-3.94,15.68-5.07C695.14,168.44,693.81,163.62,690.66,164.29L690.66,164.29z"/>
		<path class="st0" d="M809.6,169.36c-10.61-3.82-21.16-7.81-31.64-11.98c-6.81-2.71-13.65-5.91-20.88-7.32
			c-20.09-3.93-41.95,1.6-59.64,11.25c-2.83,1.54-0.3,5.86,2.52,4.32c16.95-9.25,38.88-15.01,58.08-10.24
			c6.92,1.72,13.53,4.81,20.14,7.43c9.97,3.95,20,7.73,30.08,11.36C811.3,175.27,812.61,170.44,809.6,169.36L809.6,169.36z"/>
		<path class="st0" d="M760.83,167.07c-9.03-6.08-18.7-7.45-29.05-4.7c-14.98,3.97-29.52,10.45-43.88,16.21
			c-2.95,1.18-1.66,6.02,1.33,4.82c13.35-5.35,26.76-10.97,40.51-15.23c10.35-3.2,19.22-3.09,28.58,3.21
			C760.99,173.19,763.49,168.86,760.83,167.07L760.83,167.07z"/>
		<path class="st0" d="M796.36,178.83c-8.88-4.87-18.81-8.49-28.93-9.57c-3.2-0.34-3.17,4.66,0,5c9.19,0.98,18.38,4.49,26.41,8.88
			C796.66,184.7,799.18,180.38,796.36,178.83L796.36,178.83z"/>
		<path class="st0" d="M780.81,187.6c-6.33-3.21-12.85-5.9-19.55-8.25c-5.85-2.05-11.7-4.04-17.97-4.09
			c-5.78-0.05-11.26,1.55-16.71,3.33c-7.75,2.54-15.29,5.46-22.64,9c-2.9,1.4-0.36,5.71,2.52,4.32c6.72-3.24,13.6-5.91,20.68-8.25
			c5.26-1.74,10.54-3.46,16.14-3.41c5.51,0.05,10.67,1.84,15.82,3.63c6.57,2.28,12.96,4.88,19.17,8.03
			C781.15,193.36,783.69,189.05,780.81,187.6L780.81,187.6z"/>
		<path class="st0" d="M757.48,192.67c-8.93-6.33-20.92-5.78-30.06,0c-2.71,1.72-0.21,6.05,2.52,4.32c7.72-4.89,17.45-5.36,25.01,0
			C757.59,198.85,760.09,194.52,757.48,192.67L757.48,192.67z"/>
	</g>
</g>
<text transform="matrix(1 0 0 1 454.4767 275.9514)" class="st0 st1 st2">marcação móvel</text>
</svg>
